<?xml version="1.0" encoding="UTF-8"?>
<svg version="1.1" xmlns="http://www.w3.org/2000/svg" width="80" height="80">
<path d="M0 0 C3.34457568 2.02115004 5.24741166 4.14679596 7.5546875 7.234375 C9.76668717 9.72848478 12.86276178 10.49614819 15.90234375 11.75390625 C18.73426451 13.91636732 21.33170719 16.28927532 23.90234375 18.75390625 C24.64226562 19.31464844 25.3821875 19.87539063 26.14453125 20.453125 C28.74755484 23.86019366 28.20627301 27.06677614 27.83984375 31.12890625 C27.77893555 32.24265625 27.77893555 32.24265625 27.71679688 33.37890625 C27.30097309 39.05014145 26.04581569 43.61043431 21.90234375 47.75390625 C21.80246564 49.31376737 21.77267096 50.87835778 21.77734375 52.44140625 C21.36647863 57.86915072 19.7545643 62.07762347 17.33984375 66.87890625 C16.87457275 67.87410278 16.87457275 67.87410278 16.39990234 68.8894043 C15.3984375 70.76171875 15.3984375 70.76171875 12.90234375 73.75390625 C9.90961048 74.48278659 7.88949612 74.76835189 4.90234375 74.75390625 C3.58492187 74.79773438 2.2675 74.8415625 0.91015625 74.88671875 C-0.37117188 74.88414063 -1.6525 74.8815625 -2.97265625 74.87890625 C-4.26945312 74.88148437 -5.56625 74.8840625 -6.90234375 74.88671875 C-10.09765625 74.75390625 -10.09765625 74.75390625 -12.09765625 73.75390625 C-13.08765625 74.24890625 -13.08765625 74.24890625 -14.09765625 74.75390625 C-17.84116397 74.90950437 -21.57167848 74.88011957 -25.31640625 74.81640625 C-27.44121814 74.78128539 -29.56876766 74.77661041 -31.69140625 74.87890625 C-33.72265625 74.87890625 -33.72265625 74.87890625 -37.09765625 73.75390625 C-39.31862172 70.63049043 -40.67179856 67.29415367 -42.09765625 63.75390625 C-42.67515625 62.76390625 -43.25265625 61.77390625 -43.84765625 60.75390625 C-45.07035666 57.81942527 -45.32564807 55.88256172 -45.53515625 52.75390625 C-45.78726012 49.20344345 -45.92742941 47.99551853 -48.03515625 45.00390625 C-51.64312995 39.31861435 -52.40187736 31.82438472 -51.90234375 25.140625 C-50.83282208 21.96840297 -49.16163859 20.09535424 -46.91015625 17.62890625 C-46.15347656 16.78070312 -45.39679687 15.9325 -44.6171875 15.05859375 C-40.61870594 11.40106798 -37.54228294 9.75390625 -32.09765625 9.75390625 C-31.93265625 9.05265625 -31.76765625 8.35140625 -31.59765625 7.62890625 C-28.29312323 1.29521796 -21.45468501 -1.79997444 -15.17578125 -4.6796875 C-9.9247826 -6.11088074 -4.56705205 -2.29736558 0 0 Z " fill="#1F6A96" transform="translate(52.09765625,5.24609375)"/>
<path d="M0 0 C3.34457568 2.02115004 5.24741166 4.14679596 7.5546875 7.234375 C9.76668717 9.72848478 12.86276178 10.49614819 15.90234375 11.75390625 C18.73426451 13.91636732 21.33170719 16.28927532 23.90234375 18.75390625 C24.64226562 19.31464844 25.3821875 19.87539063 26.14453125 20.453125 C28.74755484 23.86019366 28.20627301 27.06677614 27.83984375 31.12890625 C27.77893555 32.24265625 27.77893555 32.24265625 27.71679688 33.37890625 C27.30097309 39.05014145 26.04581569 43.61043431 21.90234375 47.75390625 C21.80246564 49.31376737 21.77267096 50.87835778 21.77734375 52.44140625 C21.36647863 57.86915072 19.7545643 62.07762347 17.33984375 66.87890625 C16.87457275 67.87410278 16.87457275 67.87410278 16.39990234 68.8894043 C15.3984375 70.76171875 15.3984375 70.76171875 12.90234375 73.75390625 C9.90961048 74.48278659 7.88949612 74.76835189 4.90234375 74.75390625 C3.58492187 74.79773438 2.2675 74.8415625 0.91015625 74.88671875 C-0.37117188 74.88414063 -1.6525 74.8815625 -2.97265625 74.87890625 C-4.26945312 74.88148437 -5.56625 74.8840625 -6.90234375 74.88671875 C-10.09765625 74.75390625 -10.09765625 74.75390625 -12.09765625 73.75390625 C-13.08765625 74.24890625 -13.08765625 74.24890625 -14.09765625 74.75390625 C-17.84116397 74.90950437 -21.57167848 74.88011957 -25.31640625 74.81640625 C-27.44121814 74.78128539 -29.56876766 74.77661041 -31.69140625 74.87890625 C-33.72265625 74.87890625 -33.72265625 74.87890625 -37.09765625 73.75390625 C-39.31862172 70.63049043 -40.67179856 67.29415367 -42.09765625 63.75390625 C-42.67515625 62.76390625 -43.25265625 61.77390625 -43.84765625 60.75390625 C-45.07035666 57.81942527 -45.32564807 55.88256172 -45.53515625 52.75390625 C-45.78726012 49.20344345 -45.92742941 47.99551853 -48.03515625 45.00390625 C-51.64312995 39.31861435 -52.40187736 31.82438472 -51.90234375 25.140625 C-50.83282208 21.96840297 -49.16163859 20.09535424 -46.91015625 17.62890625 C-46.15347656 16.78070312 -45.39679687 15.9325 -44.6171875 15.05859375 C-40.61870594 11.40106798 -37.54228294 9.75390625 -32.09765625 9.75390625 C-31.93265625 9.05265625 -31.76765625 8.35140625 -31.59765625 7.62890625 C-28.29312323 1.29521796 -21.45468501 -1.79997444 -15.17578125 -4.6796875 C-9.9247826 -6.11088074 -4.56705205 -2.29736558 0 0 Z M-29.09765625 5.75390625 C-29.40703125 6.45515625 -29.71640625 7.15640625 -30.03515625 7.87890625 C-31.61973164 10.67521576 -34.01094563 10.81163859 -36.921875 11.76953125 C-40.72706469 13.49108924 -43.56641502 16.47120278 -46.09765625 19.75390625 C-46.09765625 20.41390625 -46.09765625 21.07390625 -46.09765625 21.75390625 C-48.07765625 22.74390625 -48.07765625 22.74390625 -50.09765625 23.75390625 C-50.2292594 35.47241322 -50.2292594 35.47241322 -45.2890625 45.703125 C-43.66253695 48.5028821 -43.47468312 51.0510081 -43.09765625 54.25390625 C-42.47081776 59.49987495 -41.34257797 62.92252895 -38.21875 67.16796875 C-37.09765625 68.75390625 -37.09765625 68.75390625 -36.09765625 71.75390625 C-29.09925808 73.93373519 -19.69097763 75.73444283 -12.7421875 72.73828125 C-11.92814453 72.25101563 -11.92814453 72.25101563 -11.09765625 71.75390625 C-10.10765625 72.74390625 -10.10765625 72.74390625 -9.09765625 73.75390625 C-5.09232093 74.17880922 -1.11457959 73.95648172 2.90234375 73.75390625 C3.75441406 73.73199219 4.60648438 73.71007812 5.484375 73.6875 C8.04991414 73.41215253 9.6700971 73.0667325 11.90234375 71.75390625 C14.46096673 68.31489687 16.19137238 64.66950629 17.90234375 60.75390625 C18.27746094 60.07714844 18.65257813 59.40039062 19.0390625 58.703125 C20.07341088 56.36765061 20.17313417 54.48652478 20.27734375 51.94140625 C20.60795131 47.71085392 21.65478926 45.5721231 23.953125 41.9921875 C26.37114577 36.29043483 26.46075915 29.83442948 25.90234375 23.75390625 C24.22475019 20.14227171 22.0840207 18.09302801 18.90234375 15.75390625 C18.20625 15.23183594 17.51015625 14.70976562 16.79296875 14.171875 C13.1084782 11.65783352 11.51046958 10.75390625 6.90234375 10.75390625 C6.67546875 10.19703125 6.44859375 9.64015625 6.21484375 9.06640625 C2.55189176 2.61263369 -3.39349698 -0.57579302 -10.09765625 -3.24609375 C-17.15363377 -3.24609375 -23.79692994 1.42678273 -29.09765625 5.75390625 Z " fill="#313032" transform="translate(52.09765625,5.24609375)"/>
<path d="M0 0 C2.79872437 2.52788007 4.45773019 4.20411134 5 8 C6.97536745 7.65213292 6.97536745 7.65213292 9 7 C9.33 6.34 9.66 5.68 10 5 C16.55187638 4.62913907 16.55187638 4.62913907 18.8125 6.5 C19.204375 6.995 19.59625 7.49 20 8 C20.66 8 21.32 8 22 8 C22.33 9.65 22.66 11.3 23 13 C23.99 13.33 24.98 13.66 26 14 C25.67 14.99 25.34 15.98 25 17 C21.04 17.495 21.04 17.495 17 18 C17 19.32 17 20.64 17 22 C11.36529617 22.5497272 8.61012242 20.95047835 4 18 C4 17.34 4 16.68 4 16 C3.21625 15.731875 2.4325 15.46375 1.625 15.1875 C-1 14 -1 14 -3 11 C-3 9.68 -3 8.36 -3 7 C-3.66 7 -4.32 7 -5 7 C-5.33 5.68 -5.66 4.36 -6 3 C-4.02 2.01 -2.04 1.02 0 0 Z " fill="#2E76A1" transform="translate(21,48)"/>
<path d="M0 0 C2.97 0 5.94 0 9 0 C9.95024979 3.69541586 9.95024979 6.30458414 9 10 C10.98 10.66 12.96 11.32 15 12 C15.33 10.35 15.66 8.7 16 7 C15.34 7 14.68 7 14 7 C14 5.02 14 3.04 14 1 C14.66 1 15.32 1 16 1 C20 7 20 7 19.625 9.6875 C19.315625 10.8321875 19.315625 10.8321875 19 12 C19.66 12 20.32 12 21 12 C20.835 12.5775 20.67 13.155 20.5 13.75 C19.85537969 16.26664369 19.85537969 16.26664369 20 20 C19 21 19 21 15.9375 21.0625 C14.968125 21.041875 13.99875 21.02125 13 21 C12.67 21.66 12.34 22.32 12 23 C12 22.34 12 21.68 12 21 C11.34 20.67 10.68 20.34 10 20 C10 18.68 10 17.36 10 16 C8.7315625 16.2475 8.7315625 16.2475 7.4375 16.5 C3.90861144 17.01329288 0.56067311 17.07121346 -3 17 C-3 15.35 -3 13.7 -3 12 C-1.68 11.67 -0.36 11.34 1 11 C0.649375 9.741875 0.29875 8.48375 -0.0625 7.1875 C-0.93609485 4.05283612 -1.07239297 3.21717892 0 0 Z " fill="#6C4E54" transform="translate(36,27)"/>
<path d="M0 0 C0.99 0 1.98 0 3 0 C3 0.66 3 1.32 3 2 C3.99 2.33 4.98 2.66 6 3 C5.43589129 6.94876098 4.34264206 9.75634176 2 13 C1.01 13.33 0.02 13.66 -1 14 C-1.30164063 14.63550781 -1.60328125 15.27101563 -1.9140625 15.92578125 C-3.32034454 18.61188112 -4.6015295 19.05876201 -7.375 20.1875 C-8.14585938 20.51105469 -8.91671875 20.83460937 -9.7109375 21.16796875 C-13.58474028 22.57602334 -16.00463118 23.28422569 -20 22 C-20 21.01 -20 20.02 -20 19 C-19.09507813 18.92652344 -19.09507813 18.92652344 -18.171875 18.8515625 C-17.37265625 18.77679688 -16.5734375 18.70203125 -15.75 18.625 C-14.96109375 18.55539063 -14.1721875 18.48578125 -13.359375 18.4140625 C-10.914123 17.98492887 -9.15163097 17.21399362 -7 16 C-6.67 16.33 -6.34 16.66 -6 17 C-6 16.01 -6 15.02 -6 14 C-7.65 14.66 -9.3 15.32 -11 16 C-11.66666667 12.66666667 -12.33333333 9.33333333 -13 6 C-11.68 5.67 -10.36 5.34 -9 5 C-9 5.66 -9 6.32 -9 7 C-6.03 7.495 -6.03 7.495 -3 8 C-2.67 6.35 -2.34 4.7 -2 3 C-1.34 3 -0.68 3 0 3 C0 2.01 0 1.02 0 0 Z " fill="#4E8BAF" transform="translate(59,48)"/>
<path d="M0 0 C3.88433735 3.50843373 3.88433735 3.50843373 4.5 6.125 C4.665 6.74375 4.83 7.3625 5 8 C5.66 8.33 6.32 8.66 7 9 C9 10 9 10 9.75 12.125 C9.87375 13.053125 9.87375 13.053125 10 14 C8.35 13.67 6.7 13.34 5 13 C5.66 13.66 6.32 14.32 7 15 C6.625 17.125 6.625 17.125 6 19 C5.34 18.67 4.68 18.34 4 18 C4 17.34 4 16.68 4 16 C3.21625 15.731875 2.4325 15.46375 1.625 15.1875 C-1 14 -1 14 -3 11 C-3 9.68 -3 8.36 -3 7 C-3.66 7 -4.32 7 -5 7 C-5.33 5.68 -5.66 4.36 -6 3 C-4.02 2.01 -2.04 1.02 0 0 Z " fill="#5992B4" transform="translate(21,48)"/>
<path d="M0 0 C2.97 0 5.94 0 9 0 C9.73099001 2.84273894 10.05864524 4.72632223 9.4375 7.625 C8.66787181 10.25608714 8.66787181 10.25608714 11 13 C6.71 13 2.42 13 -2 13 C-1.67 12.34 -1.34 11.68 -1 11 C-0.34 11 0.32 11 1 11 C0.649375 9.741875 0.29875 8.48375 -0.0625 7.1875 C-0.93609485 4.05283612 -1.07239297 3.21717892 0 0 Z " fill="#512723" transform="translate(36,27)"/>
<path d="M0 0 C0.99386719 0.00902344 1.98773438 0.01804688 3.01171875 0.02734375 C4.15060547 0.04474609 4.15060547 0.04474609 5.3125 0.0625 C5.9725 2.3725 6.6325 4.6825 7.3125 7.0625 C6.3225 7.3925 5.3325 7.7225 4.3125 8.0625 C4.6425 8.7225 4.9725 9.3825 5.3125 10.0625 C3.70375 9.7840625 3.70375 9.7840625 2.0625 9.5 C-1.09141546 9.1320432 -2.78568492 9.01784657 -5.6875 10.0625 C-5.3575 9.4025 -5.0275 8.7425 -4.6875 8.0625 C-5.6775 7.7325 -6.6675 7.4025 -7.6875 7.0625 C-7.3575 5.4125 -7.0275 3.7625 -6.6875 2.0625 C-7.3475 1.7325 -8.0075 1.4025 -8.6875 1.0625 C-5.53819107 0.01273036 -3.29935544 -0.03881595 0 0 Z " fill="#1C6896" transform="translate(40.6875,42.9375)"/>
<path d="M0 0 C0.845625 0.144375 1.69125 0.28875 2.5625 0.4375 C5.17986341 1.04150694 7.53415764 1.94321042 10 3 C9.34 3.66 8.68 4.32 8 5 C5.86328125 4.6875 5.86328125 4.6875 3.3125 4 C-1.44719873 2.92478748 -4.35875235 3.30415951 -9 5 C-10.99488234 5.36270588 -12.9937811 5.70640699 -15 6 C-15.33 5.34 -15.66 4.68 -16 4 C-15.34 4 -14.68 4 -14 4 C-14 3.34 -14 2.68 -14 2 C-8.75621846 -0.26025067 -5.6762126 -1.51365669 0 0 Z " fill="#5C94B5" transform="translate(42,18)"/>
<path d="M0 0 C0.66 0.66 1.32 1.32 2 2 C1.67 2.99 1.34 3.98 1 5 C0.34 5 -0.32 5 -1 5 C-1.144375 5.928125 -1.28875 6.85625 -1.4375 7.8125 C-2 11 -2 11 -3 14 C-3.03920815 15.99961564 -3.04443347 18.00049364 -3 20 C-4.32 20.33 -5.64 20.66 -7 21 C-7.08153933 19.41753293 -7.13943557 17.83383727 -7.1875 16.25 C-7.22230469 15.36828125 -7.25710937 14.4865625 -7.29296875 13.578125 C-6.94589665 10.52389051 -6.11745198 9.19435701 -4 7 C-3.34 7 -2.68 7 -2 7 C-2.3403125 6.1028125 -2.3403125 6.1028125 -2.6875 5.1875 C-2.790625 4.465625 -2.89375 3.74375 -3 3 C-1.5625 1.25 -1.5625 1.25 0 0 Z " fill="#538EB1" transform="translate(24,24)"/>
<path d="M0 0 C0.66 0 1.32 0 2 0 C6 6 6 6 5.625 8.6875 C5.41875 9.450625 5.2125 10.21375 5 11 C5.66 11 6.32 11 7 11 C6.67 12.32 6.34 13.64 6 15 C4.02 15.33 2.04 15.66 0 16 C0.66 12.7 1.32 9.4 2 6 C1.34 6 0.68 6 0 6 C0 4.02 0 2.04 0 0 Z " fill="#ABAB37" transform="translate(50,28)"/>
<path d="M0 0 C1.32 0.33 2.64 0.66 4 1 C4.33 2.32 4.66 3.64 5 5 C5.66 5 6.32 5 7 5 C7.33 6.65 7.66 8.3 8 10 C8.99 10 9.98 10 11 10 C11.66 10.66 12.32 11.32 13 12 C12.625 14.125 12.625 14.125 12 16 C11.34 15.67 10.68 15.34 10 15 C10 14.34 10 13.68 10 13 C9.21625 12.731875 8.4325 12.46375 7.625 12.1875 C5 11 5 11 3 8 C3 6.68 3 5.36 3 4 C2.34 4 1.68 4 1 4 C0.67 2.68 0.34 1.36 0 0 Z " fill="#70A1BE" transform="translate(15,51)"/>
<path d="M0 0 C0 0.66 0 1.32 0 2 C2.97 2.495 2.97 2.495 6 3 C6.33 2.34 6.66 1.68 7 1 C6.625 3.4375 6.625 3.4375 6 6 C5.01 6.495 5.01 6.495 4 7 C3.34 6.67 2.68 6.34 2 6 C2 6.99 2 7.98 2 9 C0.02 9.99 0.02 9.99 -2 11 C-2.66666667 7.66666667 -3.33333333 4.33333333 -4 1 C-2 0 -2 0 0 0 Z " fill="#689BBB" transform="translate(50,53)"/>
<path d="M0 0 C0.99 0.33 1.98 0.66 3 1 C3 1.99 3 2.98 3 4 C5.97 4.495 5.97 4.495 9 5 C8.34 6.32 7.68 7.64 7 9 C5.02 9 3.04 9 1 9 C0.67 9.66 0.34 10.32 0 11 C0 10.34 0 9.68 0 9 C-0.66 8.67 -1.32 8.34 -2 8 C-1.33333333 5.33333333 -0.66666667 2.66666667 0 0 Z " fill="#3D737C" transform="translate(48,39)"/>
<path d="M0 0 C0.99 0.99 1.98 1.98 3 3 C1.58521865 3.64995297 0.16808513 4.29478722 -1.25 4.9375 C-2.43335938 5.47697266 -2.43335938 5.47697266 -3.640625 6.02734375 C-7.51617541 7.62504582 -9.95140915 8.30133277 -14 7 C-14 6.01 -14 5.02 -14 4 C-13.39671875 3.95101562 -12.7934375 3.90203125 -12.171875 3.8515625 C-11.37265625 3.77679688 -10.5734375 3.70203125 -9.75 3.625 C-8.56664062 3.52058594 -8.56664062 3.52058594 -7.359375 3.4140625 C-4.51655952 2.9151578 -2.07250561 2.07250561 0 0 Z " fill="#659AB9" transform="translate(53,63)"/>
<path d="M0 0 C0 0.66 0 1.32 0 2 C-0.99 2.33 -1.98 2.66 -3 3 C-2.67 3.66 -2.34 4.32 -2 5 C-3.60875 4.7215625 -3.60875 4.7215625 -5.25 4.4375 C-8.40391546 4.0695432 -10.09818492 3.95534657 -13 5 C-12.67 4.34 -12.34 3.68 -12 3 C-12.99 2.67 -13.98 2.34 -15 2 C-15 1.34 -15 0.68 -15 0 C-9.77254141 -1.2063366 -5.23471686 -0.75612577 0 0 Z " fill="#05141E" transform="translate(48,48)"/>
<path d="M0 0 C2.00293347 3.00440021 2.49271626 4.70993945 3.125 8.1875 C3.29257812 9.08855469 3.46015625 9.98960938 3.6328125 10.91796875 C3.75398438 11.60503906 3.87515625 12.29210938 4 13 C1.625 13.125 1.625 13.125 -1 13 C-1.66 12.34 -2.32 11.68 -3 11 C-2.67 10.01 -2.34 9.02 -2 8 C-2 7.67 -2 7.34 -2 7 C-1.14634146 1.14634146 -1.14634146 1.14634146 0 0 Z " fill="#C9B923" transform="translate(27,31)"/>
<path d="M0 0 C1.32 0 2.64 0 4 0 C7.02805726 5.40724511 8.30134946 10.82233616 8 17 C6.68 17 5.36 17 4 17 C3.96261719 16.19175781 3.92523438 15.38351563 3.88671875 14.55078125 C3.82097656 13.48214844 3.75523438 12.41351563 3.6875 11.3125 C3.62949219 10.25675781 3.57148437 9.20101562 3.51171875 8.11328125 C2.96217936 4.76990036 1.91325982 2.76473738 0 0 Z " fill="#6096B7" transform="translate(56,28)"/>
<path d="M0 0 C0.66 0 1.32 0 2 0 C1.43589129 3.94876098 0.34264206 6.75634176 -2 10 C-2.99 10.33 -3.98 10.66 -5 11 C-5.33 11.99 -5.66 12.98 -6 14 C-6.33 12.68 -6.66 11.36 -7 10 C-6.34 10 -5.68 10 -5 10 C-4.67 8.68 -4.34 7.36 -4 6 C-3.34 6 -2.68 6 -2 6 C-1.855625 5.195625 -1.71125 4.39125 -1.5625 3.5625 C-1 1 -1 1 0 0 Z " fill="#72A2BF" transform="translate(63,51)"/>
<path d="M0 0 C1.65 0 3.3 0 5 0 C5.33 1.65 5.66 3.3 6 5 C6.99 5.33 7.98 5.66 9 6 C8.67 6.99 8.34 7.98 8 9 C7.01 8.67 6.02 8.34 5 8 C4.67 7.34 4.34 6.68 4 6 C1.97536745 5.34786708 1.97536745 5.34786708 0 5 C0 3.35 0 1.7 0 0 Z " fill="#6499B9" transform="translate(38,56)"/>
<path d="M0 0 C2.64 0 5.28 0 8 0 C8.79953138 3.28696233 9.09658936 4.71023192 8 8 C7.01 8 6.02 8 5 8 C5 6.35 5 4.7 5 3 C3.35 2.67 1.7 2.34 0 2 C0 1.34 0 0.68 0 0 Z " fill="#1A1016" transform="translate(37,27)"/>
<path d="M0 0 C0.66 0.99 1.32 1.98 2 3 C3.32 2.67 4.64 2.34 6 2 C6.33 3.32 6.66 4.64 7 6 C5.35 5.67 3.7 5.34 2 5 C1.67 5.99 1.34 6.98 1 8 C1 7.34 1 6.68 1 6 C-1.64 6.33 -4.28 6.66 -7 7 C-4.8614515 4.8614515 -3.86724686 4.57344937 -1 4 C-0.67 2.68 -0.34 1.36 0 0 Z " fill="#3077A2" transform="translate(47,60)"/>
<path d="M0 0 C5.66153846 1.47692308 5.66153846 1.47692308 7.375 4.125 C7.684375 5.053125 7.684375 5.053125 8 6 C3.50347222 6.36458333 3.50347222 6.36458333 1.1875 4.6875 C0 3 0 3 0 0 Z " fill="#6B9DBC" transform="translate(29,64)"/>
<path d="M0 0 C0.33 0 0.66 0 1 0 C1.08119503 2.24940295 1.13927819 4.49964871 1.1875 6.75 C1.22230469 8.00296875 1.25710937 9.2559375 1.29296875 10.546875 C0.98802939 14.14109357 0.45605371 15.44725126 -2 18 C-2.66 17.67 -3.32 17.34 -4 17 C-3.525625 16.236875 -3.05125 15.47375 -2.5625 14.6875 C-0.2235443 10.10888388 -0.26043795 5.0471078 0 0 Z " fill="#2D3A45" transform="translate(77,34)"/>
<path d="M0 0 C0.99 0.99 1.98 1.98 3 3 C-0.72965139 5.03435531 -2.66905042 6 -7 6 C-6.67 5.01 -6.34 4.02 -6 3 C-3.5 1.875 -3.5 1.875 -1 1 C-0.67 0.67 -0.34 0.34 0 0 Z " fill="#71A1BE" transform="translate(53,63)"/>
<path d="M0 0 C1.74627478 2.61941217 2.38722388 4.03824877 3 7 C1.33333333 7 -0.33333333 7 -2 7 C-1.125 1.125 -1.125 1.125 0 0 Z " fill="#8F9F4A" transform="translate(27,31)"/>
<path d="M0 0 C9.59453303 0.59453303 9.59453303 0.59453303 13 4 C10.09905209 5.45047396 8.44027404 4.45356803 5.375 3.5625 C4.37210938 3.27503906 3.36921875 2.98757812 2.3359375 2.69140625 C1.56507812 2.46324219 0.79421875 2.23507813 0 2 C0 1.34 0 0.68 0 0 Z " fill="#6E9FBD" transform="translate(39,18)"/>
<path d="M0 0 C2.64 0.33 5.28 0.66 8 1 C6.8125 2.5625 6.8125 2.5625 5 4 C2.3125 3.6875 2.3125 3.6875 0 3 C0 2.01 0 1.02 0 0 Z " fill="#6298B8" transform="translate(37,62)"/>
<path d="M0 0 C2.97 0.33 5.94 0.66 9 1 C8.01 2.485 8.01 2.485 7 4 C4.375 4.1875 4.375 4.1875 2 4 C1.34 2.68 0.68 1.36 0 0 Z " fill="#D4BE1C" transform="translate(24,44)"/>
<path d="M0 0 C2.64 0 5.28 0 8 0 C7.67 0.99 7.34 1.98 7 3 C4.69 2.67 2.38 2.34 0 2 C0 1.34 0 0.68 0 0 Z " fill="#D6BF1A" transform="translate(48,45)"/>
<path d="M0 0 C0.66 0.66 1.32 1.32 2 2 C1.67 2.99 1.34 3.98 1 5 C0.34 5 -0.32 5 -1 5 C-1.33 6.32 -1.66 7.64 -2 9 C-2.99 8.67 -3.98 8.34 -5 8 C-4.01 7.67 -3.02 7.34 -2 7 C-2.226875 6.401875 -2.45375 5.80375 -2.6875 5.1875 C-2.790625 4.465625 -2.89375 3.74375 -3 3 C-1.5625 1.25 -1.5625 1.25 0 0 Z " fill="#669AB9" transform="translate(24,24)"/>
<path d="M0 0 C1.65 0 3.3 0 5 0 C5 1.32 5 2.64 5 4 C3.35 4 1.7 4 0 4 C0 2.68 0 1.36 0 0 Z " fill="#D2E1EB" transform="translate(38,56)"/>
<path d="M0 0 C1.98 0.495 1.98 0.495 4 1 C3.67 2.32 3.34 3.64 3 5 C1.68 4.67 0.36 4.34 -1 4 C-0.67 2.68 -0.34 1.36 0 0 Z " fill="#ACC8D9" transform="translate(31,53)"/>
<path d="M0 0 C1.875 0.3125 1.875 0.3125 4 1 C4.66 1.99 5.32 2.98 6 4 C4.02 4 2.04 4 0 4 C0 2.68 0 1.36 0 0 Z " fill="#AA3A20" transform="translate(41,36)"/>
<path d="M0 0 C1.32 0.33 2.64 0.66 4 1 C3.67 2.32 3.34 3.64 3 5 C2.01 5 1.02 5 0 5 C0 3.35 0 1.7 0 0 Z " fill="#664B52" transform="translate(39,29)"/>
<path d="M0 0 C2.475 0.495 2.475 0.495 5 1 C5 1.99 5 2.98 5 4 C4.01 4 3.02 4 2 4 C1.34 2.68 0.68 1.36 0 0 Z " fill="#5E95B6" transform="translate(52,23)"/>
<path d="M0 0 C0 0.99 0 1.98 0 3 C0.66 3.33 1.32 3.66 2 4 C0.68 4.33 -0.64 4.66 -2 5 C-2.66 3.68 -3.32 2.36 -4 1 C-2 0 -2 0 0 0 Z " fill="#C0D5E2" transform="translate(50,53)"/>
</svg>
